<?xml version="1.0" encoding="UTF-8" standalone="no"?><!-- Generator: Gravit.io --><svg xmlns="http://www.w3.org/2000/svg" xmlns:xlink="http://www.w3.org/1999/xlink" style="isolation:isolate" viewBox="0 0 512 512" width="512pt" height="512pt"><defs><clipPath id="_clipPath_FXhHc2qbXsGvJwnyG4UPxjBF4W6hewPK"><rect width="512" height="512"/></clipPath></defs><g clip-path="url(#_clipPath_FXhHc2qbXsGvJwnyG4UPxjBF4W6hewPK)"><path d=" M 256.005 103.322 C 187.732 103.322 145.073 137.253 127.997 205.114 C 153.601 171.183 183.468 158.462 217.6 166.94 C 237.073 171.775 250.999 185.821 266.399 201.372 C 291.501 226.694 320.556 256 384.003 256 C 452.265 256 494.934 222.069 512 154.218 C 486.407 188.149 456.539 200.87 422.408 192.382 C 402.924 187.547 388.999 173.501 373.599 157.96 C 348.497 132.618 319.452 103.322 256.005 103.322 Z  M 127.997 256 C 59.735 256 17.066 289.931 0 357.792 C 25.604 323.861 55.471 311.14 89.592 319.618 C 109.076 324.453 123.001 338.499 138.401 354.05 C 163.503 379.372 192.548 408.678 256.005 408.678 C 324.268 408.678 366.937 374.757 384.003 306.896 C 358.399 340.827 328.532 353.548 294.4 345.071 C 274.927 340.225 261.001 326.179 245.601 310.638 C 220.499 285.316 191.444 256 127.997 256 Z " fill-rule="evenodd" fill="rgb(6,182,212)"/></g></svg>